<svg width="24" height="24" viewBox="0 0 24 24" fill="none" xmlns="http://www.w3.org/2000/svg">
<path fill-rule="evenodd" clip-rule="evenodd" d="M6.86401 12.0002C6.86401 13.3621 7.40502 14.6682 8.36802 15.6312C9.33102 16.5942 10.6371 17.1352 11.999 17.1352C13.3609 17.1352 14.667 16.5942 15.63 15.6312C16.593 14.6682 17.134 13.3621 17.134 12.0002C17.134 10.6383 16.593 9.33224 15.63 8.36924C14.667 7.40624 13.3609 6.86523 11.999 6.86523C10.6371 6.86523 9.33102 7.40624 8.36802 8.36924C7.40502 9.33224 6.86401 10.6383 6.86401 12.0002ZM12 15.3352C11.5623 15.3352 11.1288 15.249 10.7243 15.0815C10.3199 14.914 9.95242 14.6684 9.64287 14.3589C9.33333 14.0493 9.08779 13.6818 8.92026 13.2774C8.75274 12.873 8.66651 12.4395 8.66651 12.0017C8.66651 11.564 8.75274 11.1305 8.92026 10.7261C9.08779 10.3216 9.33333 9.95414 9.64287 9.64459C9.95242 9.33505 10.3199 9.08951 10.7243 8.92198C11.1288 8.75446 11.5623 8.66823 12 8.66823C12.8841 8.66823 13.732 9.01944 14.3572 9.64459C14.9823 10.2697 15.3335 11.1176 15.3335 12.0017C15.3335 12.8858 14.9823 13.7337 14.3572 14.3589C13.732 14.984 12.8841 15.3352 12 15.3352Z" fill="black"/>
<path d="M16.1379 6.66191C16.1379 6.8195 16.169 6.97554 16.2293 7.12113C16.2896 7.26672 16.378 7.39901 16.4894 7.51044C16.6008 7.62187 16.7331 7.71026 16.8787 7.77057C17.0243 7.83088 17.1804 7.86191 17.3379 7.86191C17.4955 7.86191 17.6516 7.83088 17.7972 7.77057C17.9427 7.71026 18.075 7.62187 18.1865 7.51044C18.2979 7.39901 18.3863 7.26672 18.4466 7.12113C18.5069 6.97554 18.5379 6.8195 18.5379 6.66191C18.5379 6.34365 18.4115 6.03843 18.1865 5.81339C17.9614 5.58834 17.6562 5.46191 17.3379 5.46191C17.0197 5.46191 16.7145 5.58834 16.4894 5.81339C16.2644 6.03843 16.1379 6.34365 16.1379 6.66191Z" fill="black"/>
<path fill-rule="evenodd" clip-rule="evenodd" d="M12 2C9.284 2 8.944 2.012 7.877 2.06C6.813 2.109 6.086 2.278 5.45 2.525C4.78249 2.77584 4.17775 3.16933 3.678 3.678C3.16933 4.17775 2.77584 4.78249 2.525 5.45C2.278 6.086 2.109 6.813 2.06 7.877C2.012 8.944 2 9.284 2 12C2 14.716 2.012 15.056 2.06 16.123C2.109 17.187 2.278 17.914 2.525 18.55C2.77587 19.2175 3.16936 19.8222 3.678 20.322C4.17777 20.8306 4.7825 21.2241 5.45 21.475C6.086 21.722 6.813 21.891 7.877 21.94C8.944 21.988 9.284 22 12 22C14.716 22 15.056 21.988 16.123 21.94C17.187 21.891 17.914 21.722 18.55 21.475C19.2175 21.2241 19.8222 20.8306 20.322 20.322C20.8306 19.8222 21.2241 19.2175 21.475 18.55C21.722 17.914 21.891 17.187 21.94 16.123C21.988 15.056 22 14.716 22 12C22 9.284 21.988 8.944 21.94 7.877C21.891 6.813 21.722 6.086 21.475 5.45C21.2241 4.7825 20.8306 4.17777 20.322 3.678C19.8222 3.16936 19.2175 2.77587 18.55 2.525C17.914 2.278 17.187 2.109 16.123 2.06C15.056 2.012 14.716 2 12 2ZM11.999 3.802C14.669 3.802 14.985 3.812 16.039 3.86C17.015 3.905 17.544 4.068 17.897 4.205C18.363 4.386 18.697 4.603 19.047 4.953C19.397 5.303 19.613 5.636 19.794 6.103C19.931 6.455 20.094 6.985 20.139 7.96C20.187 9.014 20.197 9.33 20.197 12C20.197 14.67 20.187 14.987 20.139 16.041C20.094 17.016 19.931 17.546 19.794 17.898C19.614 18.365 19.396 18.698 19.046 19.048C18.696 19.398 18.363 19.615 17.896 19.796C17.544 19.933 17.015 20.096 16.04 20.14C14.986 20.188 14.67 20.199 11.999 20.199C9.329 20.199 9.012 20.189 7.958 20.14C6.983 20.096 6.454 19.933 6.101 19.796C5.66658 19.6357 5.27362 19.3801 4.951 19.048C4.61886 18.7254 4.36326 18.3324 4.203 17.898C4.066 17.546 3.903 17.016 3.859 16.041C3.811 14.987 3.801 14.671 3.801 12.001C3.801 9.331 3.811 9.014 3.859 7.96C3.903 6.985 4.066 6.455 4.203 6.103C4.385 5.636 4.601 5.303 4.951 4.953C5.301 4.603 5.634 4.386 6.101 4.205C6.454 4.068 6.983 3.905 7.958 3.86C9.013 3.812 9.329 3.802 11.999 3.802Z" fill="black"/>
</svg>
