<svg width="24" height="24" viewBox="0 0 24 24" fill="none" xmlns="http://www.w3.org/2000/svg">
<path fill-rule="evenodd" clip-rule="evenodd" d="M20.52 2H3.476C2.662 2 2 2.646 2 3.441V20.557C2 21.354 2.662 22 3.476 22H20.52C21.335 22 22 21.354 22 20.557V3.44C22 2.646 21.335 2 20.52 2ZM16.078 19.043H19.042V13.808C19.042 11.238 18.488 9.261 15.484 9.261C14.041 9.261 13.074 10.052 12.677 10.802H12.637V9.498H9.792V19.043H12.756V14.32C12.756 13.075 12.993 11.87 14.536 11.87C16.058 11.87 16.078 13.293 16.078 14.4V19.043ZM4.728 6.473C4.72787 6.92917 4.90895 7.36671 5.23142 7.68937C5.55389 8.01203 5.99133 8.19337 6.4475 8.1935C6.90367 8.19363 7.34121 8.01255 7.66387 7.69008C7.98653 7.36761 8.16787 6.93017 8.168 6.474C8.168 6.01783 7.98679 5.58034 7.66422 5.25778C7.34166 4.93521 6.90417 4.754 6.448 4.754C5.99183 4.754 5.55434 4.93521 5.23178 5.25778C4.90921 5.58034 4.728 6.01683 4.728 6.473ZM7.932 19.043H4.965V9.5H7.932V19.044V19.043Z" fill="black"/>
</svg>
