<svg width="24" height="24" viewBox="0 0 24 24" fill="none" xmlns="http://www.w3.org/2000/svg">
<path d="M22 12C22 13.814 21.553 15.487 20.659 17.02C19.7856 18.5311 18.5303 19.786 17.019 20.659C15.488 21.553 13.815 22 12 22C11.037 22 10.09 21.861 9.161 21.583C9.674 20.776 10.012 20.064 10.177 19.448C10.255 19.153 10.49 18.237 10.88 16.701C11.054 17.039 11.37 17.332 11.83 17.579C12.29 17.827 12.786 17.951 13.315 17.951C14.365 17.951 15.303 17.653 16.128 17.059C16.952 16.464 17.59 15.646 18.042 14.604C18.493 13.563 18.719 12.391 18.719 11.089C18.719 10.099 18.46 9.17 17.944 8.302C17.427 7.434 16.679 6.727 15.698 6.18C14.717 5.633 13.61 5.36 12.378 5.36C11.513 5.35287 10.652 5.48005 9.826 5.737C9.036 5.989 8.365 6.323 7.814 6.74C7.27224 7.14657 6.79371 7.63116 6.394 8.178C6.01495 8.69006 5.72054 9.25963 5.522 9.865C5.33833 10.4282 5.24385 11.0166 5.242 11.609C5.242 12.512 5.416 13.306 5.763 13.992C6.11 14.678 6.618 15.16 7.286 15.437C7.546 15.542 7.712 15.455 7.781 15.177C7.799 15.117 7.833 14.982 7.885 14.773C7.938 14.565 7.972 14.435 7.99 14.383C8.042 14.183 7.994 13.997 7.846 13.823C7.404 13.293 7.182 12.638 7.182 11.857C7.182 10.546 7.636 9.42 8.543 8.477C9.45 7.536 10.637 7.065 12.104 7.065C13.414 7.065 14.437 7.421 15.171 8.133C15.904 8.845 16.271 9.769 16.271 10.906C16.271 12.382 15.973 13.636 15.379 14.669C14.784 15.702 14.023 16.219 13.094 16.219C12.564 16.219 12.139 16.029 11.818 15.652C11.496 15.275 11.397 14.822 11.518 14.292C11.588 13.988 11.703 13.582 11.863 13.074C12.023 12.566 12.154 12.119 12.253 11.734C12.353 11.347 12.403 11.019 12.403 10.75C12.403 10.316 12.286 9.956 12.053 9.67C11.818 9.383 11.483 9.24 11.049 9.24C10.511 9.24 10.056 9.487 9.682 9.982C9.309 10.477 9.122 11.092 9.122 11.831C9.122 12.464 9.231 12.994 9.448 13.419L8.158 18.862C8.011 19.47 7.955 20.238 7.99 21.167C6.201 20.377 4.756 19.157 3.654 17.507C2.55 15.859 2 14.024 2 12C2 10.186 2.447 8.513 3.341 6.98C4.21435 5.46888 5.46965 4.21394 6.981 3.341C8.512 2.447 10.185 2 12 2C13.815 2 15.487 2.447 17.02 3.341C18.5311 4.21435 19.7861 5.46965 20.659 6.981C21.553 8.512 22 10.185 22 12Z" fill="black"/>
</svg>
