<svg width="24" height="24" viewBox="0 0 24 24" fill="none" xmlns="http://www.w3.org/2000/svg">
<path d="M20 2H4C3.46957 2 2.96086 2.21071 2.58579 2.58579C2.21071 2.96086 2 3.46957 2 4V20C2 20.5304 2.21071 21.0391 2.58579 21.4142C2.96086 21.7893 3.46957 22 4 22H20C20.5304 22 21.0391 21.7893 21.4142 21.4142C21.7893 21.0391 22 20.5304 22 20V4C22 3.46957 21.7893 2.96086 21.4142 2.58579C21.0391 2.21071 20.5304 2 20 2Z" fill="black"/>
<path d="M11.061 10.6538V10.1108C10.8771 10.0849 10.6917 10.0716 10.506 10.0708C9.63003 10.0699 8.77662 10.3485 8.06996 10.8662C7.36329 11.3839 6.84027 12.1135 6.57698 12.949C6.3137 13.7845 6.3239 14.6822 6.6061 15.5115C6.8883 16.3407 7.42777 17.0583 8.14602 17.5598C7.43928 16.7977 7.0492 15.7951 7.05502 14.7558C7.0537 13.684 7.47234 12.6544 8.22119 11.8876C8.97003 11.1208 9.98949 10.6779 11.061 10.6538Z" fill="#25F4EE"/>
<path d="M11.159 16.6489C11.6476 16.646 12.1164 16.4552 12.4681 16.116C12.8198 15.7767 13.0275 15.3152 13.048 14.8269L13.056 5.87395L14.68 5.87495L14.677 5.86195C14.6424 5.67459 14.625 5.48447 14.625 5.29395H12.388L12.384 14.2599C12.3657 14.7457 12.16 15.2055 11.81 15.543C11.4601 15.8804 10.9931 16.0693 10.507 16.0699C10.192 16.0699 9.89601 15.9899 9.63501 15.8529C9.97601 16.3269 10.532 16.6489 11.159 16.6489ZM17.736 8.93094V8.40595C17.134 8.40654 16.5449 8.23137 16.041 7.90195C16.476 8.40095 17.066 8.78795 17.736 8.93195V8.93094Z" fill="#25F4EE"/>
<path d="M16.041 7.90182C15.5475 7.33682 15.2757 6.61199 15.276 5.86182H14.666C14.7457 6.27705 14.9085 6.67187 15.1449 7.02247C15.3812 7.37307 15.686 7.6722 16.041 7.90182ZM10.506 12.2898C9.46904 12.2898 8.61304 13.1518 8.61304 14.1888C8.61304 14.9108 9.03504 15.5378 9.63404 15.8528C9.40263 15.5339 9.27802 15.1499 9.27804 14.7558C9.27804 13.7188 10.122 12.8758 11.158 12.8758C11.352 12.8758 11.538 12.9078 11.714 12.9628V10.6788C11.5302 10.653 11.3447 10.6396 11.159 10.6388C11.126 10.6388 11.094 10.6388 11.061 10.6408H11.053L11.047 12.3698C10.8723 12.3151 10.6901 12.2881 10.507 12.2898H10.506Z" fill="#FE2C55"/>
<path d="M17.736 8.90483L17.726 8.90283V10.6298C16.6069 10.6275 15.5169 10.2735 14.61 9.61783V14.1878C14.6108 14.7271 14.5052 15.2613 14.2993 15.7598C14.0933 16.2582 13.7911 16.7111 13.4099 17.0926C13.0287 17.4741 12.576 17.7767 12.0777 17.983C11.5794 18.1892 11.0453 18.2952 10.506 18.2948C9.66228 18.2996 8.83783 18.0428 8.146 17.5598C8.53051 17.9745 8.99651 18.3052 9.51481 18.5313C10.0331 18.7574 10.5925 18.874 11.158 18.8738C12.2498 18.8728 13.2966 18.4386 14.0687 17.6665C14.8407 16.8945 15.2749 15.8477 15.276 14.7558V10.2098C16.183 10.8617 17.2721 11.2115 18.389 11.2098V8.97483C18.165 8.97483 17.946 8.95083 17.736 8.90483Z" fill="#FE2C55"/>
<path d="M14.625 14.1888V9.64182C15.5316 10.2938 16.6203 10.644 17.737 10.6428V8.90482C17.0784 8.76267 16.4836 8.41072 16.042 7.90182C15.6883 7.67182 15.3849 7.37244 15.1503 7.02179C14.9157 6.67113 14.7547 6.27651 14.677 5.86182H13.04L13.037 14.8268C13.0228 15.2181 12.8866 15.5952 12.6475 15.9052C12.4083 16.2153 12.0782 16.4428 11.7033 16.5558C11.3285 16.6689 10.9276 16.662 10.5569 16.5359C10.1862 16.4098 9.8642 16.171 9.63599 15.8528C9.33208 15.6938 9.07743 15.4547 8.89958 15.1614C8.72174 14.8681 8.62748 14.5318 8.62699 14.1888C8.62699 13.1518 9.47099 12.3088 10.507 12.3088C10.701 12.3088 10.887 12.3398 11.063 12.3948V10.6408C9.98841 10.6672 8.96662 11.1122 8.21547 11.8811C7.46432 12.65 7.04323 13.6819 7.04199 14.7568C7.04199 15.8388 7.46199 16.8248 8.14799 17.5598C8.81599 18.0298 9.62999 18.3068 10.508 18.3068C11.5997 18.3055 12.6462 17.8712 13.418 17.0992C14.1899 16.3271 14.6239 15.2805 14.625 14.1888Z" fill="white"/>
</svg>
