<svg width="24" height="24" viewBox="0 0 24 24" fill="none" xmlns="http://www.w3.org/2000/svg">
<path fill-rule="evenodd" clip-rule="evenodd" d="M21.005 6.08485C21.605 6.68485 21.8 8.04685 21.8 8.04685C21.8 8.04685 22 9.64685 22 11.2469V12.7469C22 14.3469 21.8 15.9469 21.8 15.9469C21.8 15.9469 21.605 17.3089 21.005 17.9089C20.32 18.6189 19.559 18.6919 19.13 18.7329C19.083 18.7369 19.04 18.7409 19.001 18.7459C16.202 18.9459 12 18.9519 12 18.9519C12 18.9519 6.8 18.9049 5.2 18.7539C5.10941 18.7384 5.01836 18.7257 4.927 18.7159C4.42 18.6559 3.626 18.5609 2.995 17.9089C2.395 17.3089 2.2 15.9459 2.2 15.9459C2.2 15.9459 2 14.3459 2 12.7459V11.2459C2 9.64685 2.2 8.04685 2.2 8.04685C2.2 8.04685 2.395 6.68485 2.995 6.08485C3.681 5.37485 4.441 5.30185 4.87 5.26085L5 5.24785C7.799 5.04785 11.997 5.04785 11.997 5.04785H12.005C12.005 5.04785 16.204 5.04785 19.002 5.24785L19.131 5.26085C19.561 5.30185 20.321 5.37485 21.006 6.08485H21.005ZM9.933 9.00885L9.934 14.5639L15.337 11.7959L9.933 9.00985V9.00885Z" fill="black"/>
</svg>
